<?xml version="1.0" encoding="utf-8"?>
<!-- Generator: Adobe Illustrator 27.1.1, SVG Export Plug-In . SVG Version: 6.00 Build 0)  -->
<svg version="1.1" id="Layer_1" xmlns="http://www.w3.org/2000/svg" xmlns:xlink="http://www.w3.org/1999/xlink" x="0px" y="0px"
	 viewBox="0 0 223 80" enable-background="new 0 0 223 80" xml:space="preserve">
<g>
	<polygon fill="#FFFFFF" points="39.7,57.2 39.7,73.9 23,73.9 23,78.6 42.1,78.6 42.1,76.2 44.4,76.2 44.4,57.2 44.4,38.2 
		39.7,38.2 	"/>
	<path fill="#FFFFFF" d="M39.1,17.4V0.9L5.5,34.2v44.4h15.2v-4.8H10.2V36.2l24.1-23.8v21.1h4.8V23.3l18.1,13.1v37.5H46.8v2.4h-2.4
		v2.4H62V34L39.1,17.4z M44,76.2h2.9v-2.4H44V76.2z M41.5,78.6h3v-3.1h-3V78.6z"/>
	<rect x="23" y="73.9" fill="#FFFFFF" width="38.9" height="4.8"/>
	<rect x="57.2" y="36.4" fill="#FFFFFF" width="4.8" height="37.5"/>
	<polygon fill="#FFFFFF" points="62,34 57.2,36.4 62,36.4 	"/>
	<polyline fill="#FFFFFF" points="39.1,17.4 39.1,23.3 57.2,36.4 62,34 	"/>
	<rect x="24.7" y="41.3" fill="#FFFFFF" width="5.8" height="5.8"/>
	<rect x="24.7" y="48.6" fill="#FFFFFF" width="5.8" height="5.8"/>
	<rect x="16.8" y="48.6" fill="#FFFFFF" width="5.8" height="5.8"/>
	<rect x="16.8" y="41.3" fill="#FFFFFF" width="5.8" height="5.8"/>
</g>
<g>
	<g>
		<path fill="#FFFFFF" d="M88,44.5l-1.5-4.4H76.4L75,44.5h-1.4l7.4-21.6h1.3l7.4,21.6H88z M76.8,38.8h9.3l-4.7-14.1L76.8,38.8z"/>
		<path fill="#FFFFFF" d="M100.2,22.9c2,0,3.7,0.7,5,2.1c1.3,1.4,2,3.1,2,5.2c0,2.1-0.7,3.8-2,5.2s-3,2-5,2h-5.9v7.1h-1.4V22.9
			H100.2z M100.2,36.2c1.6,0,3-0.6,4-1.7c1.1-1.1,1.6-2.6,1.6-4.3c0-1.7-0.5-3.2-1.6-4.3c-1.1-1.1-2.4-1.7-4.1-1.7h-5.9v12H100.2z"
			/>
		<path fill="#FFFFFF" d="M121.2,44.5l-1.5-4.4h-10.2l-1.4,4.4h-1.4l7.4-21.6h1.3l7.4,21.6H121.2z M109.9,38.8h9.3l-4.7-14.1
			L109.9,38.8z"/>
		<path fill="#FFFFFF" d="M140.3,30.2c0,1.7-0.5,3.2-1.4,4.4c-0.9,1.3-2.1,2.1-3.6,2.5l4.7,7.4h-1.6l-4.6-7.1c-0.1,0-0.3,0-0.6,0
			h-5.9v7.1H126V22.9h7.3c2,0,3.7,0.7,5,2.1C139.6,26.4,140.3,28.1,140.3,30.2z M133.3,36.2c1.6,0,3-0.6,4-1.7
			c1.1-1.1,1.6-2.6,1.6-4.3c0-1.7-0.5-3.2-1.6-4.3c-1.1-1.1-2.4-1.7-4.1-1.7h-5.9v12H133.3z"/>
		<path fill="#FFFFFF" d="M147.8,44.5V24.2h-6.7v-1.3h14.8v1.3h-6.8v20.3H147.8z"/>
		<path fill="#FFFFFF" d="M159,44.5V22.9h1.3l8.4,19.7l8.4-19.7h1.4v21.6h-1.3V25.8l-7.9,18.7h-1.1l-7.9-18.7v18.7H159z"/>
		<path fill="#FFFFFF" d="M196.5,44.5l-1.5-4.4h-10.2l-1.4,4.4h-1.4l7.4-21.6h1.3l7.4,21.6H196.5z M185.3,38.8h9.3l-4.7-14.1
			L185.3,38.8z"/>
		<path fill="#FFFFFF" d="M201.4,44.5V22.9h1.5l12,19.4V22.9h1.3v21.6h-1.5l-12-19.4v19.4H201.4z"/>
	</g>
	<g>
		<path fill="#FFFFFF" d="M79.2,70.6V52.4H73v-3.3H89v3.3h-6.3v18.2H79.2z"/>
		<path fill="#FFFFFF" d="M101,70.6l-0.8-2.7h-8.3L91,70.6h-3.8l7.3-21.6h3.1l7.3,21.6H101z M92.8,64.7h6.4L96,54L92.8,64.7z"/>
		<path fill="#FFFFFF" d="M107.6,70.6V49.1h3.7l8.5,15.6V49.1h3.4v21.6h-3.7L111,55v15.6H107.6z"/>
		<path fill="#FFFFFF" d="M133.2,71.1c-2.2,0-3.9-0.7-5.1-2.1c-1.2-1.4-1.8-3.2-1.8-5.5h3.5c0,1.3,0.3,2.4,0.9,3.2
			c0.6,0.8,1.4,1.2,2.6,1.2s2-0.4,2.6-1.2c0.6-0.8,0.9-1.8,0.9-3.2V49.1h3.5v14.6c0,2.3-0.6,4.1-1.9,5.5
			C137.1,70.5,135.4,71.1,133.2,71.1z"/>
		<path fill="#FFFFFF" d="M155.7,70.6l-0.8-2.7h-8.3l-0.8,2.7h-3.8l7.3-21.6h3.1l7.3,21.6H155.7z M147.5,64.7h6.4L150.7,54
			L147.5,64.7z"/>
	</g>
</g>
<g>
</g>
<g>
</g>
<g>
</g>
<g>
</g>
<g>
</g>
<g>
</g>
</svg>
